<?xml version="1.0" encoding="UTF-8"?>
<svg version="1.1" viewBox="0 0 1200 1200" width="1280" height="1280" xmlns="http://www.w3.org/2000/svg">
<path transform="translate(0)" d="m0 0h1200v1200h-1200z" fill="#FEF8F6"/>
<path transform="translate(596,351)" d="m0 0h32l32 2 32 5 24 6 18 6 20 9 12 8 10 9 6 8 4 10 1 18v27l-1 77 6 2 13 7 13 10 6 7 6 12v13l-4 10-6 8-9 8-16 10-18 8-16 6-30 8-27 5-31 4-29 2h-58l-30-2-27-3-28-5-28-7-23-8-23-11-14-10-8-8-5-8-2-6v-14l6-12 6-7 13-10 17-9h2l-1-51 1-71 4-10 6-8 10-9 13-8 14-7 19-7 24-6 22-4 28-3z" fill="#BCB5B5"/>
<path transform="translate(597,359)" d="m0 0h39l31 3 24 4 28 7 21 8 17 9 10 8 7 8 4 10v8l-4 10-7 8-11 9-15 8-25 9-25 6-25 4-19 2-21 1h-27l-20-1-31-4-29-6-27-9-16-8-12-8-8-8-5-9-1-4v-8l4-10 9-10 11-8 15-8 30-10 22-5 27-4z" fill="#FEF8F6"/>
<path transform="translate(450,442)" d="m0 0 4 2 5 6 15 10 17 8 24 8 26 6 28 4 12 1 28 1h15l34-2 23-3 24-5 20-6 16-6 16-8 14-10 5-5 2 1v69l-6 9-9 9-6 4-6 2h-12l-17-7-4-1h-11l-10 4-7 6-8 10-5 5-8 4h-9l-10-5-12-7-11-3h-9l-11 3-12 7-8 6-7 3h-7l-8-4-7-7-9-11-10-6-7-2h-13l-17 6-8 1-6-3-6-7-8-12-6-7-8-5-10-3z" fill="#FEF8F6"/>
<path transform="translate(451,510)" d="m0 0 5 1 9 6 16 22 7 5 8 2 12-3 15-5 10 1 8 4 5 4 8 10 7 7 9 4h13l10-5 13-9 9-4h14l10 4 14 8 9 3 9-1 12-6 8-9 7-8 8-5 9-1 14 5 10 4h12l12-5 11-9 3-1 1 3v20l-2 10-4 7-9 9-11 7-16 8-20 7-24 6-33 5-29 2h-34l-26-2-28-4-30-7-15-5-18-8-11-7-10-9-4-5-3-6-1-6v-43z" fill="#FEF8F6"/>
<path transform="translate(968,706)" d="m0 0 10 1 4 4 1 4v21l5-8 5-5 4-3 6-1 6 2 5 6 2 6v8l-4 6-5 4-6 3 14 4 6 4 5 6 1 6-4 6-4 3-9 3h-18l6 10 3 10-1 9-6 8-2 1h-8l-5-3-7-10-3-9v-5h-2v5l1 3-3 1-2 6h6l1 2-5 5-22 12-22 11-29 12-17 5h-11l-7-4-3-9 2-8 5-10-5 2-17 9-27 11-21 6-19 3h-9l-11-3-5-5-1-2v-12l2-5-11 7-40 26-25 15-24 13-16 8-14 6-15 4h-9l-6-3-4-6v-9l5-12 8-11 18-21 48-48 11-14 3-7-1-6-9-8h-4l-20 20-8 7-14 12-14 11-15 10-18 10-15 7-21 8-23 6-7 1h-8l-11-3-7-6-2-5 1-10 4-8 7-9 8-8 13-8 8-2 7 1 4 4 1 5-4 6-8 5-6 2h-11l-7-1-2 5-4 5-3 12 2 4 9 3h10l19-4 24-8 18-8 19-10 14-10 12-9 10-9 11-9 20-20 2-1v-2l-11-8-2-3v-6l6-9 10-10 13-9 14-7 3-1h9l3 3-1 9-7 11-10 13h-2l-2 4-11 12 5 5 8 7 3 6-1 5-4 8-7 9-9 10-11 12-38 38-7 8-8 10-8 14-1 3v9h11l18-5 26-12 23-13 14-8 19-12 17-11 28-19 18-14 13-8 7-2 8 1 4 5-1 9-7 8-3 2h-6l1-5 6-5 2-3v-4l-8 1-11 6-4 5-6 5-5 8-2 6v9l3 3 5 1h11l18-3 24-7 21-9 16-8 16-9 9-7 8-8h7v3l-11 11-9 12-8 13-2 5 1 6 1 1h10l15-4 25-10 25-12 1-1-7-6-4-8v-8l5-9 3-3v-2l-9-1-6-4-1-2v-8l4-6 9-6 4-2-9-9-4-7v-10l4-7 7-4h8l7 4 6 8 1-19 2-5 5-3z" fill="#BCB5B5"/>
<path transform="translate(441,544)" d="m0 0h1l1 15 7 14 9 9 15 10 17 8 27 9 28 6 22 3 40 2 7 1 43-3 23-3 24-5 21-6 22-9 14-8 10-8 7-7 5-11 1-3 1-13 6 1 11 7 11 9 6 9 2 5v10l-3 8-9 10-11 8-19 10-20 7-25 7-25 5-29 4-23 2-16 1h-59l-37-3-33-5-24-5-24-7-21-8-17-9-10-8-7-8-4-10v-9l3-7 4-6 7-7 18-11z" fill="#FEF8F6"/>
<path transform="translate(271,620)" d="m0 0h15l12 5 9 6 8 9 6 12 5 17v11l-4 10-3 5 13-3h14l8 4 4 8v15l-5 16-3 6 19-11 12-5 7-2h10l6 3 4 5v8l-2 9-11 23-8 12-5 7 8-8 2-3h2l2-4 19-19 8-7 9-9 8-7 13-11 13-10 16-10 9-4 9-1 6 3 2 2v11l-5 13-8 15-11 16-14 19-22 28-11 13-9 11-10 11-9 12-2 5-6 5-7-1-1-2 7-9 24-28 9-11 11-13 9-12 14-18 13-18 12-20 6-13 2-7v-4h-7l-9 4-12 7-13 10-14 12-15 14-8 7-20 20-7 8-9 9-7 8-14 15-18 22-7 1-2-3 10-14 7-10 12-17 9-13 10-16 10-19 3-10v-8l-9-1-11 3-13 6-14 9-9 7-5 8-8 13-12 17-14 18-10 11-7 8-9 10-10 9-11 7-5 1-6-4 1-5 6-10 8-11 9-11 11-13 15-16 13-13 8-7 6-5h2v-2l8-6 4-5 7-15 5-16 1-9-1-7-3-3h-13l-14 5-14 8-14 12-13 13-4 3-5-1 1-5 8-8 8-7 3-2-11 2-13-1-11-3-9-5-8-7-6-10-3-10v-18l4-13 8-13 7-8 10-7 10-4z" fill="#BCB5B5"/>
<path transform="translate(608,147)" d="m0 0h14l37 2 37 5 28 6 30 8 27 9 41 18 22 12 24 15 15 10 16 12 16 13 11 9 7 7 8 7 10 10 7 8 8 8 9 11 14 18 15 22 14 22 14 26 11 24 10 26 8 24 9 36 6 37v4h-6l-2-1-6-33-6-26-9-30-9-25-12-27-14-27-13-21-8-12-10-14-14-18-12-14-15-16-9-9-8-7-14-13-14-11-11-9-17-12-18-11-18-10-28-14-32-13-28-9-26-7-27-5-31-4-16-1h-55l-33 3-36 6-28 7-37 12-26 11-33 16-16 9-19 12-15 11-14 11-14 12-8 7-12 11-20 20-9 11-11 13-14 19-12 18-14 23-15 29-12 28-7 20-5 16-7 25-5 26-3 22-1 1h-8l1-13 5-30 10-38 11-31 11-26 15-30 14-23 13-19 10-14 11-14 9-10 7-8 12-13 12-12 8-7 10-9 28-22 16-11 19-12 22-13 31-15 24-10 24-8 30-8 29-6 27-4 23-2z" fill="#BCB5B5"/>
<path transform="translate(174,775)" d="m0 0h7l4 5 14 27 16 26 11 16 12 17 11 13 8 10 15 16 14 14 8 7 10 9 14 11 16 13 17 12 17 11 23 13 22 11 29 12 22 8 27 8 25 6 29 5 25 3 17 1h51l27-2 29-4 26-5 27-7 33-11 34-14 26-13 18-10 20-13 19-14 10-8 16-13 11-10 8-7 13-12 12-13 13-15 13-17 10-14 12-18 12-20 9-16 9-17 6-1 3 1-1 4-12 24-16 27-8 12-12 17-12 16-12 14-22 24-16 15-7 7-11 9-9 8-19 14-24 16-15 9-18 10-15 8-30 13-29 11-26 8-34 8-22 4-21 2-32 1h-47l-23-1-31-4-32-7-29-8-31-11-28-12-30-15-17-10-19-12-16-11-13-10-16-13-26-24-14-14-7-8-10-11-13-17-12-16-15-23-14-24-8-16-6-11z" fill="#BCB5B5"/>
<path transform="translate(271,624)" d="m0 0h13l13 5 9 7 6 7 5 10 4 13 1 9-2 9-5 10-4 6-13 9-13 5-5 1h-14l-13-4-10-7-6-9-3-8-1-4v-16l4-13 7-12 7-8 11-7z" fill="#FEF8F6"/>
<path transform="translate(874,315)" d="m0 0 9 1 6 5 2 4v14l5 6-2 6-9 10-7 6v3l3 3-1 3-2 1h-10l-8 16-12 22-12 21-6 9-13 9-10 5-4-1-1-6v-18l4-10 12-22 10-18 14-25 13-23 8-14 8-6z" fill="#BCB5B5"/>
<path transform="translate(862,335)" d="m0 0 6 1 13 6-1 4-9 16-13 23-6 12-10 17-12 22-2 3-5-2-12-6v-5l12-21 25-45 9-16z" fill="#FEF8F6"/>
<path transform="translate(649,398)" d="m0 0h11l6 4 1 2 12 2 6 5 2 9-2 7-7 7-12 5-9 1-8-4-7-11-2-7v-8l4-8z" fill="#BCB5B5"/>
<path transform="translate(575,381)" d="m0 0 7 2 4 5 1 4v9l-3 9-6 9-5 4h-11l-10-3-8-5-4-6-1-3v-7l2-4 5-3 9 1 4 2h5l1-7 4-5z" fill="#FEF8F6"/>
<path transform="translate(572,374)" d="m0 0h8l8 4 4 5 3 7v14l-5 12-6 8-7 6-2 1h-12l-14-4-8-5-5-5-3-4-2-5v-10l3-6 6-5 7-3 10 1 2 1 2-5 8-6zm3 7-7 3-3 4-1 7-7-1-5-2h-6l-5 3-2 4v7l4 8 5 4 9 4 5 1h11l6-5 6-10 2-7v-9l-3-7-4-3z" fill="#BCB5B5"/>
<path transform="translate(615,365)" d="m0 0 6 1 4 2 12 1 6 4 1 2v10l-4 6-7 6-7 3h-7l-8-6-5-8-1-3v-9l4-6z" fill="#BCB5B5"/>
<path transform="translate(958,778)" d="m0 0 6 1 1 1-1 14-4 15-3 6-9 5h-7l-5-5-3-7 1-6 3-6 7-9 10-7z" fill="#FEF8F6"/>
<path transform="translate(937,726)" d="m0 0 8 1 5 4 8 13 5 13-2 5-3 1-16-6-9-8-3-5-1-8 3-7z" fill="#FEF8F6"/>
<path transform="translate(995,760)" d="m0 0h12l10 4 5 5 1 5-4 4-11 4h-12l-10-3-6-3 1-6 2-4z" fill="#FEF8F6"/>
<path transform="translate(970,780)" d="m0 0h7l7 4 7 8 5 11v10l-4 6-7 1-6-5-5-10-4-12z" fill="#FEF8F6"/>
<path transform="translate(693,714)" d="m0 0h3l-2 5-9 13-12 14-8 9-5-1-8-7 1-4 6-8 8-7 15-10z" fill="#FEF8F6"/>
<path transform="translate(324,771)" d="m0 0 2 1-13 17-12 16-9 10-9 11-17 17-7 5h-3l2-5 12-16 11-13 16-17 7-8 8-7 7-7z" fill="#FEF8F6"/>
<path transform="translate(999,724)" d="m0 0h7l4 5 1 2v10l-4 5-13 8-12 7h-2v-8l5-11 5-10 7-7z" fill="#FEF8F6"/>
<path transform="translate(968,710)" d="m0 0 9 1 1 2v25l-3 16-3 2h-5l-4-15-1-8v-16l2-5z" fill="#FEF8F6"/>
<path transform="translate(653,405)" d="m0 0 6 1 2 2 1 6 13-1 3 2v8l-7 6-5 2h-9l-5-4-3-8v-11z" fill="#FEF8F6"/>
<path transform="translate(937,764)" d="m0 0h10l10 4 3 4-16 9-9 3-6-1-4-4v-6l5-5z" fill="#FEF8F6"/>
<path transform="translate(303,668)" d="m0 0 5 1 5 3-2 4-7 10-6 7-8 5-7 2h-14l-13-5-7-2 2-5 3-4h5l-1 4-1 2 13 5h13l8-3 8-7 6-9-1-5z" fill="#BCB5B5"/>
<path transform="translate(617,373)" d="m0 0 3 1 3 4 14-1v6l-5 6-3 2h-10l-5-5-2-4v-6z" fill="#FEF8F6"/>
<path transform="translate(875,320)" d="m0 0 6 1 4 4 1 2v8l-1 3-6-1-13-7 1-5 5-4z" fill="#FEF8F6"/>
<path transform="translate(968,760)" d="m0 0h7l1 3h2l-1 10-2 2-8 1-5-3v-8l4-4z" fill="#FEF8F6"/>
<path transform="translate(274,640)" d="m0 0 5 1 5 10 7 18-2 4-4-1-10-28z" fill="#BCB5B5"/>
<path transform="translate(258,648)" d="m0 0h4l8 27 1 4-4 1-4-6-6-21z" fill="#BCB5B5"/>
<path transform="translate(809,435)" d="m0 0 10 4 3 2-1 4-8 5-5 1v-15z" fill="#FEF8F6"/>
<path transform="translate(519,806)" d="m0 0h7v3l-9 6h-13l4-4z" fill="#FEF8F6"/>
<path transform="translate(907,776)" d="m0 0 4 1v4l-7 8-1 1h-5v-5l7-8z" fill="#BCB5B5"/>
<path transform="translate(887,344)" d="m0 0 2 1-1 5-5 5-4 2 2-5 4-7z" fill="#FEF8F6"/>
</svg>
